<?xml version="1.0" encoding="utf-8" standalone="no"?>
<!DOCTYPE svg PUBLIC "-//W3C//DTD SVG 1.1//EN"
  "http://www.w3.org/Graphics/SVG/1.1/DTD/svg11.dtd">
<svg xmlns:xlink="http://www.w3.org/1999/xlink" width="576pt" height="360pt" viewBox="0 0 576 360" xmlns="http://www.w3.org/2000/svg" version="1.1">
 <metadata>
  <rdf:RDF xmlns:dc="http://purl.org/dc/elements/1.1/" xmlns:cc="http://creativecommons.org/ns#" xmlns:rdf="http://www.w3.org/1999/02/22-rdf-syntax-ns#">
   <cc:Work>
    <dc:type rdf:resource="http://purl.org/dc/dcmitype/StillImage"/>
    <dc:date>2025-11-20T11:38:30.933644</dc:date>
    <dc:format>image/svg+xml</dc:format>
    <dc:creator>
     <cc:Agent>
      <dc:title>Matplotlib v3.10.7, https://matplotlib.org/</dc:title>
     </cc:Agent>
    </dc:creator>
   </cc:Work>
  </rdf:RDF>
 </metadata>
 <defs>
  <style type="text/css">*{stroke-linejoin: round; stroke-linecap: butt}</style>
 </defs>
 <g id="figure_1">
  <g id="patch_1">
   <path d="M 0 360 
L 576 360 
L 576 0 
L 0 0 
z
" style="fill: #ffffff"/>
  </g>
  <g id="axes_1">
   <g id="patch_2">
    <path d="M 72 320.4 
L 518.4 320.4 
L 518.4 43.2 
L 72 43.2 
z
" style="fill: #ffffff"/>
   </g>
   <g id="patch_3">
    <path d="M 72 67285.291251 
L 81.110204 67285.291251 
L 81.110204 311.096778 
L 72 311.096778 
z
" clip-path="url(#pfe2fb6cf07)" style="fill: #dbde57; opacity: 0.6; stroke: #000000; stroke-width: 0.4; stroke-linejoin: miter"/>
   </g>
   <g id="patch_4">
    <path d="M 81.110204 67285.291251 
L 90.220408 67285.291251 
L 90.220408 67285.291251 
L 81.110204 67285.291251 
z
" clip-path="url(#pfe2fb6cf07)" style="fill: #dbde57; opacity: 0.6; stroke: #000000; stroke-width: 0.4; stroke-linejoin: miter"/>
   </g>
   <g id="patch_5">
    <path d="M 90.220408 67285.291251 
L 99.330612 67285.291251 
L 99.330612 67285.291251 
L 90.220408 67285.291251 
z
" clip-path="url(#pfe2fb6cf07)" style="fill: #dbde57; opacity: 0.6; stroke: #000000; stroke-width: 0.4; stroke-linejoin: miter"/>
   </g>
   <g id="patch_6">
    <path d="M 99.330612 67285.291251 
L 108.440816 67285.291251 
L 108.440816 290.935536 
L 99.330612 290.935536 
z
" clip-path="url(#pfe2fb6cf07)" style="fill: #dbde57; opacity: 0.6; stroke: #000000; stroke-width: 0.4; stroke-linejoin: miter"/>
   </g>
   <g id="patch_7">
    <path d="M 108.440816 67285.291251 
L 117.55102 67285.291251 
L 117.55102 67285.291251 
L 108.440816 67285.291251 
z
" clip-path="url(#pfe2fb6cf07)" style="fill: #dbde57; opacity: 0.6; stroke: #000000; stroke-width: 0.4; stroke-linejoin: miter"/>
   </g>
   <g id="patch_8">
    <path d="M 117.55102 67285.291251 
L 126.661224 67285.291251 
L 126.661224 290.935536 
L 117.55102 290.935536 
z
" clip-path="url(#pfe2fb6cf07)" style="fill: #dbde57; opacity: 0.6; stroke: #000000; stroke-width: 0.4; stroke-linejoin: miter"/>
   </g>
   <g id="patch_9">
    <path d="M 126.661224 67285.291251 
L 135.771429 67285.291251 
L 135.771429 279.141966 
L 126.661224 279.141966 
z
" clip-path="url(#pfe2fb6cf07)" style="fill: #dbde57; opacity: 0.6; stroke: #000000; stroke-width: 0.4; stroke-linejoin: miter"/>
   </g>
   <g id="patch_10">
    <path d="M 135.771429 67285.291251 
L 144.881633 67285.291251 
L 144.881633 247.187154 
L 135.771429 247.187154 
z
" clip-path="url(#pfe2fb6cf07)" style="fill: #dbde57; opacity: 0.6; stroke: #000000; stroke-width: 0.4; stroke-linejoin: miter"/>
   </g>
   <g id="patch_11">
    <path d="M 144.881633 67285.291251 
L 153.991837 67285.291251 
L 153.991837 241.350342 
L 144.881633 241.350342 
z
" clip-path="url(#pfe2fb6cf07)" style="fill: #dbde57; opacity: 0.6; stroke: #000000; stroke-width: 0.4; stroke-linejoin: miter"/>
   </g>
   <g id="patch_12">
    <path d="M 153.991837 67285.291251 
L 163.102041 67285.291251 
L 163.102041 223.961342 
L 153.991837 223.961342 
z
" clip-path="url(#pfe2fb6cf07)" style="fill: #dbde57; opacity: 0.6; stroke: #000000; stroke-width: 0.4; stroke-linejoin: miter"/>
   </g>
   <g id="patch_13">
    <path d="M 163.102041 67285.291251 
L 172.212245 67285.291251 
L 172.212245 208.527211 
L 163.102041 208.527211 
z
" clip-path="url(#pfe2fb6cf07)" style="fill: #dbde57; opacity: 0.6; stroke: #000000; stroke-width: 0.4; stroke-linejoin: miter"/>
   </g>
   <g id="patch_14">
    <path d="M 172.212245 67285.291251 
L 181.322449 67285.291251 
L 181.322449 201.696544 
L 172.212245 201.696544 
z
" clip-path="url(#pfe2fb6cf07)" style="fill: #dbde57; opacity: 0.6; stroke: #000000; stroke-width: 0.4; stroke-linejoin: miter"/>
   </g>
   <g id="patch_15">
    <path d="M 181.322449 67285.291251 
L 190.432653 67285.291251 
L 190.432653 192.495391 
L 181.322449 192.495391 
z
" clip-path="url(#pfe2fb6cf07)" style="fill: #dbde57; opacity: 0.6; stroke: #000000; stroke-width: 0.4; stroke-linejoin: miter"/>
   </g>
   <g id="patch_16">
    <path d="M 190.432653 67285.291251 
L 199.542857 67285.291251 
L 199.542857 170.196218 
L 190.432653 170.196218 
z
" clip-path="url(#pfe2fb6cf07)" style="fill: #dbde57; opacity: 0.6; stroke: #000000; stroke-width: 0.4; stroke-linejoin: miter"/>
   </g>
   <g id="patch_17">
    <path d="M 199.542857 67285.291251 
L 208.653061 67285.291251 
L 208.653061 156.127385 
L 199.542857 156.127385 
z
" clip-path="url(#pfe2fb6cf07)" style="fill: #dbde57; opacity: 0.6; stroke: #000000; stroke-width: 0.4; stroke-linejoin: miter"/>
   </g>
   <g id="patch_18">
    <path d="M 208.653061 67285.291251 
L 217.763265 67285.291251 
L 217.763265 145.096783 
L 208.653061 145.096783 
z
" clip-path="url(#pfe2fb6cf07)" style="fill: #dbde57; opacity: 0.6; stroke: #000000; stroke-width: 0.4; stroke-linejoin: miter"/>
   </g>
   <g id="patch_19">
    <path d="M 217.763265 67285.291251 
L 226.873469 67285.291251 
L 226.873469 130.393667 
L 217.763265 130.393667 
z
" clip-path="url(#pfe2fb6cf07)" style="fill: #dbde57; opacity: 0.6; stroke: #000000; stroke-width: 0.4; stroke-linejoin: miter"/>
   </g>
   <g id="patch_20">
    <path d="M 226.873469 67285.291251 
L 235.983673 67285.291251 
L 235.983673 126.677771 
L 226.873469 126.677771 
z
" clip-path="url(#pfe2fb6cf07)" style="fill: #dbde57; opacity: 0.6; stroke: #000000; stroke-width: 0.4; stroke-linejoin: miter"/>
   </g>
   <g id="patch_21">
    <path d="M 235.983673 67285.291251 
L 245.093878 67285.291251 
L 245.093878 125.032336 
L 235.983673 125.032336 
z
" clip-path="url(#pfe2fb6cf07)" style="fill: #dbde57; opacity: 0.6; stroke: #000000; stroke-width: 0.4; stroke-linejoin: miter"/>
   </g>
   <g id="patch_22">
    <path d="M 245.093878 67285.291251 
L 254.204082 67285.291251 
L 254.204082 126.883694 
L 245.093878 126.883694 
z
" clip-path="url(#pfe2fb6cf07)" style="fill: #dbde57; opacity: 0.6; stroke: #000000; stroke-width: 0.4; stroke-linejoin: miter"/>
   </g>
   <g id="patch_23">
    <path d="M 254.204082 67285.291251 
L 263.314286 67285.291251 
L 263.314286 131.766209 
L 254.204082 131.766209 
z
" clip-path="url(#pfe2fb6cf07)" style="fill: #dbde57; opacity: 0.6; stroke: #000000; stroke-width: 0.4; stroke-linejoin: miter"/>
   </g>
   <g id="patch_24">
    <path d="M 263.314286 67285.291251 
L 272.42449 67285.291251 
L 272.42449 136.608571 
L 263.314286 136.608571 
z
" clip-path="url(#pfe2fb6cf07)" style="fill: #dbde57; opacity: 0.6; stroke: #000000; stroke-width: 0.4; stroke-linejoin: miter"/>
   </g>
   <g id="patch_25">
    <path d="M 272.42449 67285.291251 
L 281.534694 67285.291251 
L 281.534694 141.638691 
L 272.42449 141.638691 
z
" clip-path="url(#pfe2fb6cf07)" style="fill: #dbde57; opacity: 0.6; stroke: #000000; stroke-width: 0.4; stroke-linejoin: miter"/>
   </g>
   <g id="patch_26">
    <path d="M 281.534694 67285.291251 
L 290.644898 67285.291251 
L 290.644898 147.304406 
L 281.534694 147.304406 
z
" clip-path="url(#pfe2fb6cf07)" style="fill: #dbde57; opacity: 0.6; stroke: #000000; stroke-width: 0.4; stroke-linejoin: miter"/>
   </g>
   <g id="patch_27">
    <path d="M 290.644898 67285.291251 
L 299.755102 67285.291251 
L 299.755102 158.326406 
L 290.644898 158.326406 
z
" clip-path="url(#pfe2fb6cf07)" style="fill: #dbde57; opacity: 0.6; stroke: #000000; stroke-width: 0.4; stroke-linejoin: miter"/>
   </g>
   <g id="patch_28">
    <path d="M 299.755102 67285.291251 
L 308.865306 67285.291251 
L 308.865306 162.582577 
L 299.755102 162.582577 
z
" clip-path="url(#pfe2fb6cf07)" style="fill: #dbde57; opacity: 0.6; stroke: #000000; stroke-width: 0.4; stroke-linejoin: miter"/>
   </g>
   <g id="patch_29">
    <path d="M 308.865306 67285.291251 
L 317.97551 67285.291251 
L 317.97551 174.90986 
L 308.865306 174.90986 
z
" clip-path="url(#pfe2fb6cf07)" style="fill: #dbde57; opacity: 0.6; stroke: #000000; stroke-width: 0.4; stroke-linejoin: miter"/>
   </g>
   <g id="patch_30">
    <path d="M 317.97551 67285.291251 
L 327.085714 67285.291251 
L 327.085714 192.00653 
L 317.97551 192.00653 
z
" clip-path="url(#pfe2fb6cf07)" style="fill: #dbde57; opacity: 0.6; stroke: #000000; stroke-width: 0.4; stroke-linejoin: miter"/>
   </g>
   <g id="patch_31">
    <path d="M 327.085714 67285.291251 
L 336.195918 67285.291251 
L 336.195918 205.292044 
L 327.085714 205.292044 
z
" clip-path="url(#pfe2fb6cf07)" style="fill: #dbde57; opacity: 0.6; stroke: #000000; stroke-width: 0.4; stroke-linejoin: miter"/>
   </g>
   <g id="patch_32">
    <path d="M 336.195918 67285.291251 
L 345.306122 67285.291251 
L 345.306122 203.081878 
L 336.195918 203.081878 
z
" clip-path="url(#pfe2fb6cf07)" style="fill: #dbde57; opacity: 0.6; stroke: #000000; stroke-width: 0.4; stroke-linejoin: miter"/>
   </g>
   <g id="patch_33">
    <path d="M 345.306122 67285.291251 
L 354.416327 67285.291251 
L 354.416327 223.961342 
L 345.306122 223.961342 
z
" clip-path="url(#pfe2fb6cf07)" style="fill: #dbde57; opacity: 0.6; stroke: #000000; stroke-width: 0.4; stroke-linejoin: miter"/>
   </g>
   <g id="patch_34">
    <path d="M 354.416327 67285.291251 
L 363.526531 67285.291251 
L 363.526531 234.335776 
L 354.416327 234.335776 
z
" clip-path="url(#pfe2fb6cf07)" style="fill: #dbde57; opacity: 0.6; stroke: #000000; stroke-width: 0.4; stroke-linejoin: miter"/>
   </g>
   <g id="patch_35">
    <path d="M 363.526531 67285.291251 
L 372.636735 67285.291251 
L 372.636735 238.819483 
L 363.526531 238.819483 
z
" clip-path="url(#pfe2fb6cf07)" style="fill: #dbde57; opacity: 0.6; stroke: #000000; stroke-width: 0.4; stroke-linejoin: miter"/>
   </g>
   <g id="patch_36">
    <path d="M 372.636735 67285.291251 
L 381.746939 67285.291251 
L 381.746939 279.141966 
L 372.636735 279.141966 
z
" clip-path="url(#pfe2fb6cf07)" style="fill: #dbde57; opacity: 0.6; stroke: #000000; stroke-width: 0.4; stroke-linejoin: miter"/>
   </g>
   <g id="patch_37">
    <path d="M 381.746939 67285.291251 
L 390.857143 67285.291251 
L 390.857143 264.283825 
L 381.746939 264.283825 
z
" clip-path="url(#pfe2fb6cf07)" style="fill: #dbde57; opacity: 0.6; stroke: #000000; stroke-width: 0.4; stroke-linejoin: miter"/>
   </g>
   <g id="patch_38">
    <path d="M 390.857143 67285.291251 
L 399.967347 67285.291251 
L 399.967347 250.613053 
L 390.857143 250.613053 
z
" clip-path="url(#pfe2fb6cf07)" style="fill: #dbde57; opacity: 0.6; stroke: #000000; stroke-width: 0.4; stroke-linejoin: miter"/>
   </g>
   <g id="patch_39">
    <path d="M 399.967347 67285.291251 
L 409.077551 67285.291251 
L 409.077551 290.935536 
L 399.967347 290.935536 
z
" clip-path="url(#pfe2fb6cf07)" style="fill: #dbde57; opacity: 0.6; stroke: #000000; stroke-width: 0.4; stroke-linejoin: miter"/>
   </g>
   <g id="patch_40">
    <path d="M 409.077551 67285.291251 
L 418.187755 67285.291251 
L 418.187755 311.096778 
L 409.077551 311.096778 
z
" clip-path="url(#pfe2fb6cf07)" style="fill: #dbde57; opacity: 0.6; stroke: #000000; stroke-width: 0.4; stroke-linejoin: miter"/>
   </g>
   <g id="patch_41">
    <path d="M 418.187755 67285.291251 
L 427.297959 67285.291251 
L 427.297959 270.774295 
L 418.187755 270.774295 
z
" clip-path="url(#pfe2fb6cf07)" style="fill: #dbde57; opacity: 0.6; stroke: #000000; stroke-width: 0.4; stroke-linejoin: miter"/>
   </g>
   <g id="patch_42">
    <path d="M 427.297959 67285.291251 
L 436.408163 67285.291251 
L 436.408163 67285.291251 
L 427.297959 67285.291251 
z
" clip-path="url(#pfe2fb6cf07)" style="fill: #dbde57; opacity: 0.6; stroke: #000000; stroke-width: 0.4; stroke-linejoin: miter"/>
   </g>
   <g id="patch_43">
    <path d="M 436.408163 67285.291251 
L 445.518367 67285.291251 
L 445.518367 311.096778 
L 436.408163 311.096778 
z
" clip-path="url(#pfe2fb6cf07)" style="fill: #dbde57; opacity: 0.6; stroke: #000000; stroke-width: 0.4; stroke-linejoin: miter"/>
   </g>
   <g id="patch_44">
    <path d="M 445.518367 67285.291251 
L 454.628571 67285.291251 
L 454.628571 311.096778 
L 445.518367 311.096778 
z
" clip-path="url(#pfe2fb6cf07)" style="fill: #dbde57; opacity: 0.6; stroke: #000000; stroke-width: 0.4; stroke-linejoin: miter"/>
   </g>
   <g id="patch_45">
    <path d="M 454.628571 67285.291251 
L 463.738776 67285.291251 
L 463.738776 311.096778 
L 454.628571 311.096778 
z
" clip-path="url(#pfe2fb6cf07)" style="fill: #dbde57; opacity: 0.6; stroke: #000000; stroke-width: 0.4; stroke-linejoin: miter"/>
   </g>
   <g id="patch_46">
    <path d="M 463.738776 67285.291251 
L 472.84898 67285.291251 
L 472.84898 67285.291251 
L 463.738776 67285.291251 
z
" clip-path="url(#pfe2fb6cf07)" style="fill: #dbde57; opacity: 0.6; stroke: #000000; stroke-width: 0.4; stroke-linejoin: miter"/>
   </g>
   <g id="patch_47">
    <path d="M 472.84898 67285.291251 
L 481.959184 67285.291251 
L 481.959184 67285.291251 
L 472.84898 67285.291251 
z
" clip-path="url(#pfe2fb6cf07)" style="fill: #dbde57; opacity: 0.6; stroke: #000000; stroke-width: 0.4; stroke-linejoin: miter"/>
   </g>
   <g id="patch_48">
    <path d="M 481.959184 67285.291251 
L 491.069388 67285.291251 
L 491.069388 67285.291251 
L 481.959184 67285.291251 
z
" clip-path="url(#pfe2fb6cf07)" style="fill: #dbde57; opacity: 0.6; stroke: #000000; stroke-width: 0.4; stroke-linejoin: miter"/>
   </g>
   <g id="patch_49">
    <path d="M 491.069388 67285.291251 
L 500.179592 67285.291251 
L 500.179592 67285.291251 
L 491.069388 67285.291251 
z
" clip-path="url(#pfe2fb6cf07)" style="fill: #dbde57; opacity: 0.6; stroke: #000000; stroke-width: 0.4; stroke-linejoin: miter"/>
   </g>
   <g id="patch_50">
    <path d="M 500.179592 67285.291251 
L 509.289796 67285.291251 
L 509.289796 67285.291251 
L 500.179592 67285.291251 
z
" clip-path="url(#pfe2fb6cf07)" style="fill: #dbde57; opacity: 0.6; stroke: #000000; stroke-width: 0.4; stroke-linejoin: miter"/>
   </g>
   <g id="patch_51">
    <path d="M 509.289796 67285.291251 
L 518.4 67285.291251 
L 518.4 67285.291251 
L 509.289796 67285.291251 
z
" clip-path="url(#pfe2fb6cf07)" style="fill: #dbde57; opacity: 0.6; stroke: #000000; stroke-width: 0.4; stroke-linejoin: miter"/>
   </g>
   <g id="patch_52">
    <path d="M 72 67285.291251 
L 81.110204 67285.291251 
L 81.110204 67285.291251 
L 72 67285.291251 
z
" clip-path="url(#pfe2fb6cf07)" style="fill: #808080; opacity: 0.6; stroke: #000000; stroke-width: 0.4; stroke-linejoin: miter"/>
   </g>
   <g id="patch_53">
    <path d="M 81.110204 67285.291251 
L 90.220408 67285.291251 
L 90.220408 67285.291251 
L 81.110204 67285.291251 
z
" clip-path="url(#pfe2fb6cf07)" style="fill: #808080; opacity: 0.6; stroke: #000000; stroke-width: 0.4; stroke-linejoin: miter"/>
   </g>
   <g id="patch_54">
    <path d="M 90.220408 67285.291251 
L 99.330612 67285.291251 
L 99.330612 67285.291251 
L 90.220408 67285.291251 
z
" clip-path="url(#pfe2fb6cf07)" style="fill: #808080; opacity: 0.6; stroke: #000000; stroke-width: 0.4; stroke-linejoin: miter"/>
   </g>
   <g id="patch_55">
    <path d="M 99.330612 67285.291251 
L 108.440816 67285.291251 
L 108.440816 67285.291251 
L 99.330612 67285.291251 
z
" clip-path="url(#pfe2fb6cf07)" style="fill: #808080; opacity: 0.6; stroke: #000000; stroke-width: 0.4; stroke-linejoin: miter"/>
   </g>
   <g id="patch_56">
    <path d="M 108.440816 67285.291251 
L 117.55102 67285.291251 
L 117.55102 67285.291251 
L 108.440816 67285.291251 
z
" clip-path="url(#pfe2fb6cf07)" style="fill: #808080; opacity: 0.6; stroke: #000000; stroke-width: 0.4; stroke-linejoin: miter"/>
   </g>
   <g id="patch_57">
    <path d="M 117.55102 67285.291251 
L 126.661224 67285.291251 
L 126.661224 67285.291251 
L 117.55102 67285.291251 
z
" clip-path="url(#pfe2fb6cf07)" style="fill: #808080; opacity: 0.6; stroke: #000000; stroke-width: 0.4; stroke-linejoin: miter"/>
   </g>
   <g id="patch_58">
    <path d="M 126.661224 67285.291251 
L 135.771429 67285.291251 
L 135.771429 67285.291251 
L 126.661224 67285.291251 
z
" clip-path="url(#pfe2fb6cf07)" style="fill: #808080; opacity: 0.6; stroke: #000000; stroke-width: 0.4; stroke-linejoin: miter"/>
   </g>
   <g id="patch_59">
    <path d="M 135.771429 67285.291251 
L 144.881633 67285.291251 
L 144.881633 67285.291251 
L 135.771429 67285.291251 
z
" clip-path="url(#pfe2fb6cf07)" style="fill: #808080; opacity: 0.6; stroke: #000000; stroke-width: 0.4; stroke-linejoin: miter"/>
   </g>
   <g id="patch_60">
    <path d="M 144.881633 67285.291251 
L 153.991837 67285.291251 
L 153.991837 67285.291251 
L 144.881633 67285.291251 
z
" clip-path="url(#pfe2fb6cf07)" style="fill: #808080; opacity: 0.6; stroke: #000000; stroke-width: 0.4; stroke-linejoin: miter"/>
   </g>
   <g id="patch_61">
    <path d="M 153.991837 67285.291251 
L 163.102041 67285.291251 
L 163.102041 67285.291251 
L 153.991837 67285.291251 
z
" clip-path="url(#pfe2fb6cf07)" style="fill: #808080; opacity: 0.6; stroke: #000000; stroke-width: 0.4; stroke-linejoin: miter"/>
   </g>
   <g id="patch_62">
    <path d="M 163.102041 67285.291251 
L 172.212245 67285.291251 
L 172.212245 67285.291251 
L 163.102041 67285.291251 
z
" clip-path="url(#pfe2fb6cf07)" style="fill: #808080; opacity: 0.6; stroke: #000000; stroke-width: 0.4; stroke-linejoin: miter"/>
   </g>
   <g id="patch_63">
    <path d="M 172.212245 67285.291251 
L 181.322449 67285.291251 
L 181.322449 67285.291251 
L 172.212245 67285.291251 
z
" clip-path="url(#pfe2fb6cf07)" style="fill: #808080; opacity: 0.6; stroke: #000000; stroke-width: 0.4; stroke-linejoin: miter"/>
   </g>
   <g id="patch_64">
    <path d="M 181.322449 67285.291251 
L 190.432653 67285.291251 
L 190.432653 67285.291251 
L 181.322449 67285.291251 
z
" clip-path="url(#pfe2fb6cf07)" style="fill: #808080; opacity: 0.6; stroke: #000000; stroke-width: 0.4; stroke-linejoin: miter"/>
   </g>
   <g id="patch_65">
    <path d="M 190.432653 67285.291251 
L 199.542857 67285.291251 
L 199.542857 279.141966 
L 190.432653 279.141966 
z
" clip-path="url(#pfe2fb6cf07)" style="fill: #808080; opacity: 0.6; stroke: #000000; stroke-width: 0.4; stroke-linejoin: miter"/>
   </g>
   <g id="patch_66">
    <path d="M 199.542857 67285.291251 
L 208.653061 67285.291251 
L 208.653061 241.350342 
L 199.542857 241.350342 
z
" clip-path="url(#pfe2fb6cf07)" style="fill: #808080; opacity: 0.6; stroke: #000000; stroke-width: 0.4; stroke-linejoin: miter"/>
   </g>
   <g id="patch_67">
    <path d="M 208.653061 67285.291251 
L 217.763265 67285.291251 
L 217.763265 232.329013 
L 208.653061 232.329013 
z
" clip-path="url(#pfe2fb6cf07)" style="fill: #808080; opacity: 0.6; stroke: #000000; stroke-width: 0.4; stroke-linejoin: miter"/>
   </g>
   <g id="patch_68">
    <path d="M 217.763265 67285.291251 
L 226.873469 67285.291251 
L 226.873469 225.453286 
L 217.763265 225.453286 
z
" clip-path="url(#pfe2fb6cf07)" style="fill: #808080; opacity: 0.6; stroke: #000000; stroke-width: 0.4; stroke-linejoin: miter"/>
   </g>
   <g id="patch_69">
    <path d="M 226.873469 67285.291251 
L 235.983673 67285.291251 
L 235.983673 196.733641 
L 226.873469 196.733641 
z
" clip-path="url(#pfe2fb6cf07)" style="fill: #808080; opacity: 0.6; stroke: #000000; stroke-width: 0.4; stroke-linejoin: miter"/>
   </g>
   <g id="patch_70">
    <path d="M 235.983673 67285.291251 
L 245.093878 67285.291251 
L 245.093878 212.167772 
L 235.983673 212.167772 
z
" clip-path="url(#pfe2fb6cf07)" style="fill: #808080; opacity: 0.6; stroke: #000000; stroke-width: 0.4; stroke-linejoin: miter"/>
   </g>
   <g id="patch_71">
    <path d="M 245.093878 67285.291251 
L 254.204082 67285.291251 
L 254.204082 210.290571 
L 245.093878 210.290571 
z
" clip-path="url(#pfe2fb6cf07)" style="fill: #808080; opacity: 0.6; stroke: #000000; stroke-width: 0.4; stroke-linejoin: miter"/>
   </g>
   <g id="patch_72">
    <path d="M 254.204082 67285.291251 
L 263.314286 67285.291251 
L 263.314286 196.733641 
L 254.204082 196.733641 
z
" clip-path="url(#pfe2fb6cf07)" style="fill: #808080; opacity: 0.6; stroke: #000000; stroke-width: 0.4; stroke-linejoin: miter"/>
   </g>
   <g id="patch_73">
    <path d="M 263.314286 67285.291251 
L 272.42449 67285.291251 
L 272.42449 197.897257 
L 263.314286 197.897257 
z
" clip-path="url(#pfe2fb6cf07)" style="fill: #808080; opacity: 0.6; stroke: #000000; stroke-width: 0.4; stroke-linejoin: miter"/>
   </g>
   <g id="patch_74">
    <path d="M 272.42449 67285.291251 
L 281.534694 67285.291251 
L 281.534694 186.30223 
L 272.42449 186.30223 
z
" clip-path="url(#pfe2fb6cf07)" style="fill: #808080; opacity: 0.6; stroke: #000000; stroke-width: 0.4; stroke-linejoin: miter"/>
   </g>
   <g id="patch_75">
    <path d="M 281.534694 67285.291251 
L 290.644898 67285.291251 
L 290.644898 203.8001 
L 281.534694 203.8001 
z
" clip-path="url(#pfe2fb6cf07)" style="fill: #808080; opacity: 0.6; stroke: #000000; stroke-width: 0.4; stroke-linejoin: miter"/>
   </g>
   <g id="patch_76">
    <path d="M 290.644898 67285.291251 
L 299.755102 67285.291251 
L 299.755102 208.527211 
L 290.644898 208.527211 
z
" clip-path="url(#pfe2fb6cf07)" style="fill: #808080; opacity: 0.6; stroke: #000000; stroke-width: 0.4; stroke-linejoin: miter"/>
   </g>
   <g id="patch_77">
    <path d="M 299.755102 67285.291251 
L 308.865306 67285.291251 
L 308.865306 223.961342 
L 299.755102 223.961342 
z
" clip-path="url(#pfe2fb6cf07)" style="fill: #808080; opacity: 0.6; stroke: #000000; stroke-width: 0.4; stroke-linejoin: miter"/>
   </g>
   <g id="patch_78">
    <path d="M 308.865306 67285.291251 
L 317.97551 67285.291251 
L 317.97551 203.8001 
L 308.865306 203.8001 
z
" clip-path="url(#pfe2fb6cf07)" style="fill: #808080; opacity: 0.6; stroke: #000000; stroke-width: 0.4; stroke-linejoin: miter"/>
   </g>
   <g id="patch_79">
    <path d="M 317.97551 67285.291251 
L 327.085714 67285.291251 
L 327.085714 236.491319 
L 317.97551 236.491319 
z
" clip-path="url(#pfe2fb6cf07)" style="fill: #808080; opacity: 0.6; stroke: #000000; stroke-width: 0.4; stroke-linejoin: miter"/>
   </g>
   <g id="patch_80">
    <path d="M 327.085714 67285.291251 
L 336.195918 67285.291251 
L 336.195918 236.491319 
L 327.085714 236.491319 
z
" clip-path="url(#pfe2fb6cf07)" style="fill: #808080; opacity: 0.6; stroke: #000000; stroke-width: 0.4; stroke-linejoin: miter"/>
   </g>
   <g id="patch_81">
    <path d="M 336.195918 67285.291251 
L 345.306122 67285.291251 
L 345.306122 244.122583 
L 336.195918 244.122583 
z
" clip-path="url(#pfe2fb6cf07)" style="fill: #808080; opacity: 0.6; stroke: #000000; stroke-width: 0.4; stroke-linejoin: miter"/>
   </g>
   <g id="patch_82">
    <path d="M 345.306122 67285.291251 
L 354.416327 67285.291251 
L 354.416327 290.935536 
L 345.306122 290.935536 
z
" clip-path="url(#pfe2fb6cf07)" style="fill: #808080; opacity: 0.6; stroke: #000000; stroke-width: 0.4; stroke-linejoin: miter"/>
   </g>
   <g id="patch_83">
    <path d="M 354.416327 67285.291251 
L 363.526531 67285.291251 
L 363.526531 238.819483 
L 354.416327 238.819483 
z
" clip-path="url(#pfe2fb6cf07)" style="fill: #808080; opacity: 0.6; stroke: #000000; stroke-width: 0.4; stroke-linejoin: miter"/>
   </g>
   <g id="patch_84">
    <path d="M 363.526531 67285.291251 
L 372.636735 67285.291251 
L 372.636735 264.283825 
L 363.526531 264.283825 
z
" clip-path="url(#pfe2fb6cf07)" style="fill: #808080; opacity: 0.6; stroke: #000000; stroke-width: 0.4; stroke-linejoin: miter"/>
   </g>
   <g id="patch_85">
    <path d="M 372.636735 67285.291251 
L 381.746939 67285.291251 
L 381.746939 290.935536 
L 372.636735 290.935536 
z
" clip-path="url(#pfe2fb6cf07)" style="fill: #808080; opacity: 0.6; stroke: #000000; stroke-width: 0.4; stroke-linejoin: miter"/>
   </g>
   <g id="patch_86">
    <path d="M 381.746939 67285.291251 
L 390.857143 67285.291251 
L 390.857143 290.935536 
L 381.746939 290.935536 
z
" clip-path="url(#pfe2fb6cf07)" style="fill: #808080; opacity: 0.6; stroke: #000000; stroke-width: 0.4; stroke-linejoin: miter"/>
   </g>
   <g id="patch_87">
    <path d="M 390.857143 67285.291251 
L 399.967347 67285.291251 
L 399.967347 311.096778 
L 390.857143 311.096778 
z
" clip-path="url(#pfe2fb6cf07)" style="fill: #808080; opacity: 0.6; stroke: #000000; stroke-width: 0.4; stroke-linejoin: miter"/>
   </g>
   <g id="patch_88">
    <path d="M 399.967347 67285.291251 
L 409.077551 67285.291251 
L 409.077551 311.096778 
L 399.967347 311.096778 
z
" clip-path="url(#pfe2fb6cf07)" style="fill: #808080; opacity: 0.6; stroke: #000000; stroke-width: 0.4; stroke-linejoin: miter"/>
   </g>
   <g id="patch_89">
    <path d="M 409.077551 67285.291251 
L 418.187755 67285.291251 
L 418.187755 67285.291251 
L 409.077551 67285.291251 
z
" clip-path="url(#pfe2fb6cf07)" style="fill: #808080; opacity: 0.6; stroke: #000000; stroke-width: 0.4; stroke-linejoin: miter"/>
   </g>
   <g id="patch_90">
    <path d="M 418.187755 67285.291251 
L 427.297959 67285.291251 
L 427.297959 311.096778 
L 418.187755 311.096778 
z
" clip-path="url(#pfe2fb6cf07)" style="fill: #808080; opacity: 0.6; stroke: #000000; stroke-width: 0.4; stroke-linejoin: miter"/>
   </g>
   <g id="patch_91">
    <path d="M 427.297959 67285.291251 
L 436.408163 67285.291251 
L 436.408163 67285.291251 
L 427.297959 67285.291251 
z
" clip-path="url(#pfe2fb6cf07)" style="fill: #808080; opacity: 0.6; stroke: #000000; stroke-width: 0.4; stroke-linejoin: miter"/>
   </g>
   <g id="patch_92">
    <path d="M 436.408163 67285.291251 
L 445.518367 67285.291251 
L 445.518367 311.096778 
L 436.408163 311.096778 
z
" clip-path="url(#pfe2fb6cf07)" style="fill: #808080; opacity: 0.6; stroke: #000000; stroke-width: 0.4; stroke-linejoin: miter"/>
   </g>
   <g id="patch_93">
    <path d="M 445.518367 67285.291251 
L 454.628571 67285.291251 
L 454.628571 67285.291251 
L 445.518367 67285.291251 
z
" clip-path="url(#pfe2fb6cf07)" style="fill: #808080; opacity: 0.6; stroke: #000000; stroke-width: 0.4; stroke-linejoin: miter"/>
   </g>
   <g id="patch_94">
    <path d="M 454.628571 67285.291251 
L 463.738776 67285.291251 
L 463.738776 67285.291251 
L 454.628571 67285.291251 
z
" clip-path="url(#pfe2fb6cf07)" style="fill: #808080; opacity: 0.6; stroke: #000000; stroke-width: 0.4; stroke-linejoin: miter"/>
   </g>
   <g id="patch_95">
    <path d="M 463.738776 67285.291251 
L 472.84898 67285.291251 
L 472.84898 67285.291251 
L 463.738776 67285.291251 
z
" clip-path="url(#pfe2fb6cf07)" style="fill: #808080; opacity: 0.6; stroke: #000000; stroke-width: 0.4; stroke-linejoin: miter"/>
   </g>
   <g id="patch_96">
    <path d="M 472.84898 67285.291251 
L 481.959184 67285.291251 
L 481.959184 311.096778 
L 472.84898 311.096778 
z
" clip-path="url(#pfe2fb6cf07)" style="fill: #808080; opacity: 0.6; stroke: #000000; stroke-width: 0.4; stroke-linejoin: miter"/>
   </g>
   <g id="patch_97">
    <path d="M 481.959184 67285.291251 
L 491.069388 67285.291251 
L 491.069388 67285.291251 
L 481.959184 67285.291251 
z
" clip-path="url(#pfe2fb6cf07)" style="fill: #808080; opacity: 0.6; stroke: #000000; stroke-width: 0.4; stroke-linejoin: miter"/>
   </g>
   <g id="patch_98">
    <path d="M 491.069388 67285.291251 
L 500.179592 67285.291251 
L 500.179592 67285.291251 
L 491.069388 67285.291251 
z
" clip-path="url(#pfe2fb6cf07)" style="fill: #808080; opacity: 0.6; stroke: #000000; stroke-width: 0.4; stroke-linejoin: miter"/>
   </g>
   <g id="patch_99">
    <path d="M 500.179592 67285.291251 
L 509.289796 67285.291251 
L 509.289796 67285.291251 
L 500.179592 67285.291251 
z
" clip-path="url(#pfe2fb6cf07)" style="fill: #808080; opacity: 0.6; stroke: #000000; stroke-width: 0.4; stroke-linejoin: miter"/>
   </g>
   <g id="patch_100">
    <path d="M 509.289796 67285.291251 
L 518.4 67285.291251 
L 518.4 67285.291251 
L 509.289796 67285.291251 
z
" clip-path="url(#pfe2fb6cf07)" style="fill: #808080; opacity: 0.6; stroke: #000000; stroke-width: 0.4; stroke-linejoin: miter"/>
   </g>
   <g id="matplotlib.axis_1">
    <g id="xtick_1">
     <g id="line2d_1">
      <path d="M 72 320.4 
L 72 43.2 
" clip-path="url(#pfe2fb6cf07)" style="fill: none; stroke-dasharray: 0.74,0.32; stroke-dashoffset: 0; stroke: #b0b0b0; stroke-width: 0.2"/>
     </g>
     <g id="line2d_2">
      <defs>
       <path id="m499fd900d3" d="M 0 0 
L 0 3.5 
" style="stroke: #000000; stroke-width: 0.8"/>
      </defs>
      <g>
       <use xlink:href="#m499fd900d3" x="72" y="320.4" style="stroke: #000000; stroke-width: 0.8"/>
      </g>
     </g>
     <g id="text_1">
      <!-- −1 -->
      <g transform="translate(64.628906 334.998438) scale(0.1 -0.1)">
       <defs>
        <path id="DejaVuSans-2212" d="M 678 2272 
L 4684 2272 
L 4684 1741 
L 678 1741 
L 678 2272 
z
" transform="scale(0.015625)"/>
        <path id="DejaVuSans-31" d="M 794 531 
L 1825 531 
L 1825 4091 
L 703 3866 
L 703 4441 
L 1819 4666 
L 2450 4666 
L 2450 531 
L 3481 531 
L 3481 0 
L 794 0 
L 794 531 
z
" transform="scale(0.015625)"/>
       </defs>
       <use xlink:href="#DejaVuSans-2212"/>
       <use xlink:href="#DejaVuSans-31" transform="translate(83.789062 0)"/>
      </g>
     </g>
    </g>
    <g id="xtick_2">
     <g id="line2d_3">
      <path d="M 146.4 320.4 
L 146.4 43.2 
" clip-path="url(#pfe2fb6cf07)" style="fill: none; stroke-dasharray: 0.74,0.32; stroke-dashoffset: 0; stroke: #b0b0b0; stroke-width: 0.2"/>
     </g>
     <g id="line2d_4">
      <g>
       <use xlink:href="#m499fd900d3" x="146.4" y="320.4" style="stroke: #000000; stroke-width: 0.8"/>
      </g>
     </g>
     <g id="text_2">
      <!-- 0 -->
      <g transform="translate(143.21875 334.998438) scale(0.1 -0.1)">
       <defs>
        <path id="DejaVuSans-30" d="M 2034 4250 
Q 1547 4250 1301 3770 
Q 1056 3291 1056 2328 
Q 1056 1369 1301 889 
Q 1547 409 2034 409 
Q 2525 409 2770 889 
Q 3016 1369 3016 2328 
Q 3016 3291 2770 3770 
Q 2525 4250 2034 4250 
z
M 2034 4750 
Q 2819 4750 3233 4129 
Q 3647 3509 3647 2328 
Q 3647 1150 3233 529 
Q 2819 -91 2034 -91 
Q 1250 -91 836 529 
Q 422 1150 422 2328 
Q 422 3509 836 4129 
Q 1250 4750 2034 4750 
z
" transform="scale(0.015625)"/>
       </defs>
       <use xlink:href="#DejaVuSans-30"/>
      </g>
     </g>
    </g>
    <g id="xtick_3">
     <g id="line2d_5">
      <path d="M 220.8 320.4 
L 220.8 43.2 
" clip-path="url(#pfe2fb6cf07)" style="fill: none; stroke-dasharray: 0.74,0.32; stroke-dashoffset: 0; stroke: #b0b0b0; stroke-width: 0.2"/>
     </g>
     <g id="line2d_6">
      <g>
       <use xlink:href="#m499fd900d3" x="220.8" y="320.4" style="stroke: #000000; stroke-width: 0.8"/>
      </g>
     </g>
     <g id="text_3">
      <!-- 1 -->
      <g transform="translate(217.61875 334.998438) scale(0.1 -0.1)">
       <use xlink:href="#DejaVuSans-31"/>
      </g>
     </g>
    </g>
    <g id="xtick_4">
     <g id="line2d_7">
      <path d="M 295.2 320.4 
L 295.2 43.2 
" clip-path="url(#pfe2fb6cf07)" style="fill: none; stroke-dasharray: 0.74,0.32; stroke-dashoffset: 0; stroke: #b0b0b0; stroke-width: 0.2"/>
     </g>
     <g id="line2d_8">
      <g>
       <use xlink:href="#m499fd900d3" x="295.2" y="320.4" style="stroke: #000000; stroke-width: 0.8"/>
      </g>
     </g>
     <g id="text_4">
      <!-- 2 -->
      <g transform="translate(292.01875 334.998438) scale(0.1 -0.1)">
       <defs>
        <path id="DejaVuSans-32" d="M 1228 531 
L 3431 531 
L 3431 0 
L 469 0 
L 469 531 
Q 828 903 1448 1529 
Q 2069 2156 2228 2338 
Q 2531 2678 2651 2914 
Q 2772 3150 2772 3378 
Q 2772 3750 2511 3984 
Q 2250 4219 1831 4219 
Q 1534 4219 1204 4116 
Q 875 4013 500 3803 
L 500 4441 
Q 881 4594 1212 4672 
Q 1544 4750 1819 4750 
Q 2544 4750 2975 4387 
Q 3406 4025 3406 3419 
Q 3406 3131 3298 2873 
Q 3191 2616 2906 2266 
Q 2828 2175 2409 1742 
Q 1991 1309 1228 531 
z
" transform="scale(0.015625)"/>
       </defs>
       <use xlink:href="#DejaVuSans-32"/>
      </g>
     </g>
    </g>
    <g id="xtick_5">
     <g id="line2d_9">
      <path d="M 369.6 320.4 
L 369.6 43.2 
" clip-path="url(#pfe2fb6cf07)" style="fill: none; stroke-dasharray: 0.74,0.32; stroke-dashoffset: 0; stroke: #b0b0b0; stroke-width: 0.2"/>
     </g>
     <g id="line2d_10">
      <g>
       <use xlink:href="#m499fd900d3" x="369.6" y="320.4" style="stroke: #000000; stroke-width: 0.8"/>
      </g>
     </g>
     <g id="text_5">
      <!-- 3 -->
      <g transform="translate(366.41875 334.998438) scale(0.1 -0.1)">
       <defs>
        <path id="DejaVuSans-33" d="M 2597 2516 
Q 3050 2419 3304 2112 
Q 3559 1806 3559 1356 
Q 3559 666 3084 287 
Q 2609 -91 1734 -91 
Q 1441 -91 1130 -33 
Q 819 25 488 141 
L 488 750 
Q 750 597 1062 519 
Q 1375 441 1716 441 
Q 2309 441 2620 675 
Q 2931 909 2931 1356 
Q 2931 1769 2642 2001 
Q 2353 2234 1838 2234 
L 1294 2234 
L 1294 2753 
L 1863 2753 
Q 2328 2753 2575 2939 
Q 2822 3125 2822 3475 
Q 2822 3834 2567 4026 
Q 2313 4219 1838 4219 
Q 1578 4219 1281 4162 
Q 984 4106 628 3988 
L 628 4550 
Q 988 4650 1302 4700 
Q 1616 4750 1894 4750 
Q 2613 4750 3031 4423 
Q 3450 4097 3450 3541 
Q 3450 3153 3228 2886 
Q 3006 2619 2597 2516 
z
" transform="scale(0.015625)"/>
       </defs>
       <use xlink:href="#DejaVuSans-33"/>
      </g>
     </g>
    </g>
    <g id="xtick_6">
     <g id="line2d_11">
      <path d="M 444 320.4 
L 444 43.2 
" clip-path="url(#pfe2fb6cf07)" style="fill: none; stroke-dasharray: 0.74,0.32; stroke-dashoffset: 0; stroke: #b0b0b0; stroke-width: 0.2"/>
     </g>
     <g id="line2d_12">
      <g>
       <use xlink:href="#m499fd900d3" x="444" y="320.4" style="stroke: #000000; stroke-width: 0.8"/>
      </g>
     </g>
     <g id="text_6">
      <!-- 4 -->
      <g transform="translate(440.81875 334.998438) scale(0.1 -0.1)">
       <defs>
        <path id="DejaVuSans-34" d="M 2419 4116 
L 825 1625 
L 2419 1625 
L 2419 4116 
z
M 2253 4666 
L 3047 4666 
L 3047 1625 
L 3713 1625 
L 3713 1100 
L 3047 1100 
L 3047 0 
L 2419 0 
L 2419 1100 
L 313 1100 
L 313 1709 
L 2253 4666 
z
" transform="scale(0.015625)"/>
       </defs>
       <use xlink:href="#DejaVuSans-34"/>
      </g>
     </g>
    </g>
    <g id="xtick_7">
     <g id="line2d_13">
      <path d="M 518.4 320.4 
L 518.4 43.2 
" clip-path="url(#pfe2fb6cf07)" style="fill: none; stroke-dasharray: 0.74,0.32; stroke-dashoffset: 0; stroke: #b0b0b0; stroke-width: 0.2"/>
     </g>
     <g id="line2d_14">
      <g>
       <use xlink:href="#m499fd900d3" x="518.4" y="320.4" style="stroke: #000000; stroke-width: 0.8"/>
      </g>
     </g>
     <g id="text_7">
      <!-- 5 -->
      <g transform="translate(515.21875 334.998438) scale(0.1 -0.1)">
       <defs>
        <path id="DejaVuSans-35" d="M 691 4666 
L 3169 4666 
L 3169 4134 
L 1269 4134 
L 1269 2991 
Q 1406 3038 1543 3061 
Q 1681 3084 1819 3084 
Q 2600 3084 3056 2656 
Q 3513 2228 3513 1497 
Q 3513 744 3044 326 
Q 2575 -91 1722 -91 
Q 1428 -91 1123 -41 
Q 819 9 494 109 
L 494 744 
Q 775 591 1075 516 
Q 1375 441 1709 441 
Q 2250 441 2565 725 
Q 2881 1009 2881 1497 
Q 2881 1984 2565 2268 
Q 2250 2553 1709 2553 
Q 1456 2553 1204 2497 
Q 953 2441 691 2322 
L 691 4666 
z
" transform="scale(0.015625)"/>
       </defs>
       <use xlink:href="#DejaVuSans-35"/>
      </g>
     </g>
    </g>
   </g>
   <g id="matplotlib.axis_2">
    <g id="ytick_1">
     <g id="line2d_15">
      <path d="M 72 311.096778 
L 518.4 311.096778 
" clip-path="url(#pfe2fb6cf07)" style="fill: none; stroke-dasharray: 0.74,0.32; stroke-dashoffset: 0; stroke: #b0b0b0; stroke-width: 0.2"/>
     </g>
     <g id="line2d_16">
      <defs>
       <path id="mfd29c14db3" d="M 0 0 
L -3.5 0 
" style="stroke: #000000; stroke-width: 0.8"/>
      </defs>
      <g>
       <use xlink:href="#mfd29c14db3" x="72" y="311.096778" style="stroke: #000000; stroke-width: 0.8"/>
      </g>
     </g>
     <g id="text_8">
      <!-- $\mathdefault{10^{0}}$ -->
      <g transform="translate(47.4 314.895997) scale(0.1 -0.1)">
       <use xlink:href="#DejaVuSans-31" transform="translate(0 0.765625)"/>
       <use xlink:href="#DejaVuSans-30" transform="translate(63.623047 0.765625)"/>
       <use xlink:href="#DejaVuSans-30" transform="translate(128.203125 39.046875) scale(0.7)"/>
      </g>
     </g>
    </g>
    <g id="ytick_2">
     <g id="line2d_17">
      <path d="M 72 244.122583 
L 518.4 244.122583 
" clip-path="url(#pfe2fb6cf07)" style="fill: none; stroke-dasharray: 0.74,0.32; stroke-dashoffset: 0; stroke: #b0b0b0; stroke-width: 0.2"/>
     </g>
     <g id="line2d_18">
      <g>
       <use xlink:href="#mfd29c14db3" x="72" y="244.122583" style="stroke: #000000; stroke-width: 0.8"/>
      </g>
     </g>
     <g id="text_9">
      <!-- $\mathdefault{10^{1}}$ -->
      <g transform="translate(47.4 247.921802) scale(0.1 -0.1)">
       <use xlink:href="#DejaVuSans-31" transform="translate(0 0.684375)"/>
       <use xlink:href="#DejaVuSans-30" transform="translate(63.623047 0.684375)"/>
       <use xlink:href="#DejaVuSans-31" transform="translate(128.203125 38.965625) scale(0.7)"/>
      </g>
     </g>
    </g>
    <g id="ytick_3">
     <g id="line2d_19">
      <path d="M 72 177.148389 
L 518.4 177.148389 
" clip-path="url(#pfe2fb6cf07)" style="fill: none; stroke-dasharray: 0.74,0.32; stroke-dashoffset: 0; stroke: #b0b0b0; stroke-width: 0.2"/>
     </g>
     <g id="line2d_20">
      <g>
       <use xlink:href="#mfd29c14db3" x="72" y="177.148389" style="stroke: #000000; stroke-width: 0.8"/>
      </g>
     </g>
     <g id="text_10">
      <!-- $\mathdefault{10^{2}}$ -->
      <g transform="translate(47.4 180.947608) scale(0.1 -0.1)">
       <use xlink:href="#DejaVuSans-31" transform="translate(0 0.765625)"/>
       <use xlink:href="#DejaVuSans-30" transform="translate(63.623047 0.765625)"/>
       <use xlink:href="#DejaVuSans-32" transform="translate(128.203125 39.046875) scale(0.7)"/>
      </g>
     </g>
    </g>
    <g id="ytick_4">
     <g id="line2d_21">
      <path d="M 72 110.174194 
L 518.4 110.174194 
" clip-path="url(#pfe2fb6cf07)" style="fill: none; stroke-dasharray: 0.74,0.32; stroke-dashoffset: 0; stroke: #b0b0b0; stroke-width: 0.2"/>
     </g>
     <g id="line2d_22">
      <g>
       <use xlink:href="#mfd29c14db3" x="72" y="110.174194" style="stroke: #000000; stroke-width: 0.8"/>
      </g>
     </g>
     <g id="text_11">
      <!-- $\mathdefault{10^{3}}$ -->
      <g transform="translate(47.4 113.973413) scale(0.1 -0.1)">
       <use xlink:href="#DejaVuSans-31" transform="translate(0 0.765625)"/>
       <use xlink:href="#DejaVuSans-30" transform="translate(63.623047 0.765625)"/>
       <use xlink:href="#DejaVuSans-33" transform="translate(128.203125 39.046875) scale(0.7)"/>
      </g>
     </g>
    </g>
    <g id="ytick_5">
     <g id="line2d_23">
      <path d="M 72 43.2 
L 518.4 43.2 
" clip-path="url(#pfe2fb6cf07)" style="fill: none; stroke-dasharray: 0.74,0.32; stroke-dashoffset: 0; stroke: #b0b0b0; stroke-width: 0.2"/>
     </g>
     <g id="line2d_24">
      <g>
       <use xlink:href="#mfd29c14db3" x="72" y="43.2" style="stroke: #000000; stroke-width: 0.8"/>
      </g>
     </g>
     <g id="text_12">
      <!-- $\mathdefault{10^{4}}$ -->
      <g transform="translate(47.4 46.999219) scale(0.1 -0.1)">
       <use xlink:href="#DejaVuSans-31" transform="translate(0 0.684375)"/>
       <use xlink:href="#DejaVuSans-30" transform="translate(63.623047 0.684375)"/>
       <use xlink:href="#DejaVuSans-34" transform="translate(128.203125 38.965625) scale(0.7)"/>
      </g>
     </g>
    </g>
    <g id="ytick_6">
     <g id="line2d_25">
      <defs>
       <path id="m26e820f8c4" d="M 0 0 
L -2 0 
" style="stroke: #000000; stroke-width: 0.6"/>
      </defs>
      <g>
       <use xlink:href="#m26e820f8c4" x="72" y="317.587248" style="stroke: #000000; stroke-width: 0.6"/>
      </g>
     </g>
    </g>
    <g id="ytick_7">
     <g id="line2d_26">
      <g>
       <use xlink:href="#m26e820f8c4" x="72" y="314.161349" style="stroke: #000000; stroke-width: 0.6"/>
      </g>
     </g>
    </g>
    <g id="ytick_8">
     <g id="line2d_27">
      <g>
       <use xlink:href="#m26e820f8c4" x="72" y="290.935536" style="stroke: #000000; stroke-width: 0.6"/>
      </g>
     </g>
    </g>
    <g id="ytick_9">
     <g id="line2d_28">
      <g>
       <use xlink:href="#m26e820f8c4" x="72" y="279.141966" style="stroke: #000000; stroke-width: 0.6"/>
      </g>
     </g>
    </g>
    <g id="ytick_10">
     <g id="line2d_29">
      <g>
       <use xlink:href="#m26e820f8c4" x="72" y="270.774295" style="stroke: #000000; stroke-width: 0.6"/>
      </g>
     </g>
    </g>
    <g id="ytick_11">
     <g id="line2d_30">
      <g>
       <use xlink:href="#m26e820f8c4" x="72" y="264.283825" style="stroke: #000000; stroke-width: 0.6"/>
      </g>
     </g>
    </g>
    <g id="ytick_12">
     <g id="line2d_31">
      <g>
       <use xlink:href="#m26e820f8c4" x="72" y="258.980725" style="stroke: #000000; stroke-width: 0.6"/>
      </g>
     </g>
    </g>
    <g id="ytick_13">
     <g id="line2d_32">
      <g>
       <use xlink:href="#m26e820f8c4" x="72" y="254.497017" style="stroke: #000000; stroke-width: 0.6"/>
      </g>
     </g>
    </g>
    <g id="ytick_14">
     <g id="line2d_33">
      <g>
       <use xlink:href="#m26e820f8c4" x="72" y="250.613053" style="stroke: #000000; stroke-width: 0.6"/>
      </g>
     </g>
    </g>
    <g id="ytick_15">
     <g id="line2d_34">
      <g>
       <use xlink:href="#m26e820f8c4" x="72" y="247.187154" style="stroke: #000000; stroke-width: 0.6"/>
      </g>
     </g>
    </g>
    <g id="ytick_16">
     <g id="line2d_35">
      <g>
       <use xlink:href="#m26e820f8c4" x="72" y="223.961342" style="stroke: #000000; stroke-width: 0.6"/>
      </g>
     </g>
    </g>
    <g id="ytick_17">
     <g id="line2d_36">
      <g>
       <use xlink:href="#m26e820f8c4" x="72" y="212.167772" style="stroke: #000000; stroke-width: 0.6"/>
      </g>
     </g>
    </g>
    <g id="ytick_18">
     <g id="line2d_37">
      <g>
       <use xlink:href="#m26e820f8c4" x="72" y="203.8001" style="stroke: #000000; stroke-width: 0.6"/>
      </g>
     </g>
    </g>
    <g id="ytick_19">
     <g id="line2d_38">
      <g>
       <use xlink:href="#m26e820f8c4" x="72" y="197.30963" style="stroke: #000000; stroke-width: 0.6"/>
      </g>
     </g>
    </g>
    <g id="ytick_20">
     <g id="line2d_39">
      <g>
       <use xlink:href="#m26e820f8c4" x="72" y="192.00653" style="stroke: #000000; stroke-width: 0.6"/>
      </g>
     </g>
    </g>
    <g id="ytick_21">
     <g id="line2d_40">
      <g>
       <use xlink:href="#m26e820f8c4" x="72" y="187.522823" style="stroke: #000000; stroke-width: 0.6"/>
      </g>
     </g>
    </g>
    <g id="ytick_22">
     <g id="line2d_41">
      <g>
       <use xlink:href="#m26e820f8c4" x="72" y="183.638859" style="stroke: #000000; stroke-width: 0.6"/>
      </g>
     </g>
    </g>
    <g id="ytick_23">
     <g id="line2d_42">
      <g>
       <use xlink:href="#m26e820f8c4" x="72" y="180.21296" style="stroke: #000000; stroke-width: 0.6"/>
      </g>
     </g>
    </g>
    <g id="ytick_24">
     <g id="line2d_43">
      <g>
       <use xlink:href="#m26e820f8c4" x="72" y="156.987147" style="stroke: #000000; stroke-width: 0.6"/>
      </g>
     </g>
    </g>
    <g id="ytick_25">
     <g id="line2d_44">
      <g>
       <use xlink:href="#m26e820f8c4" x="72" y="145.193577" style="stroke: #000000; stroke-width: 0.6"/>
      </g>
     </g>
    </g>
    <g id="ytick_26">
     <g id="line2d_45">
      <g>
       <use xlink:href="#m26e820f8c4" x="72" y="136.825906" style="stroke: #000000; stroke-width: 0.6"/>
      </g>
     </g>
    </g>
    <g id="ytick_27">
     <g id="line2d_46">
      <g>
       <use xlink:href="#m26e820f8c4" x="72" y="130.335436" style="stroke: #000000; stroke-width: 0.6"/>
      </g>
     </g>
    </g>
    <g id="ytick_28">
     <g id="line2d_47">
      <g>
       <use xlink:href="#m26e820f8c4" x="72" y="125.032336" style="stroke: #000000; stroke-width: 0.6"/>
      </g>
     </g>
    </g>
    <g id="ytick_29">
     <g id="line2d_48">
      <g>
       <use xlink:href="#m26e820f8c4" x="72" y="120.548628" style="stroke: #000000; stroke-width: 0.6"/>
      </g>
     </g>
    </g>
    <g id="ytick_30">
     <g id="line2d_49">
      <g>
       <use xlink:href="#m26e820f8c4" x="72" y="116.664665" style="stroke: #000000; stroke-width: 0.6"/>
      </g>
     </g>
    </g>
    <g id="ytick_31">
     <g id="line2d_50">
      <g>
       <use xlink:href="#m26e820f8c4" x="72" y="113.238766" style="stroke: #000000; stroke-width: 0.6"/>
      </g>
     </g>
    </g>
    <g id="ytick_32">
     <g id="line2d_51">
      <g>
       <use xlink:href="#m26e820f8c4" x="72" y="90.012953" style="stroke: #000000; stroke-width: 0.6"/>
      </g>
     </g>
    </g>
    <g id="ytick_33">
     <g id="line2d_52">
      <g>
       <use xlink:href="#m26e820f8c4" x="72" y="78.219383" style="stroke: #000000; stroke-width: 0.6"/>
      </g>
     </g>
    </g>
    <g id="ytick_34">
     <g id="line2d_53">
      <g>
       <use xlink:href="#m26e820f8c4" x="72" y="69.851712" style="stroke: #000000; stroke-width: 0.6"/>
      </g>
     </g>
    </g>
    <g id="ytick_35">
     <g id="line2d_54">
      <g>
       <use xlink:href="#m26e820f8c4" x="72" y="63.361241" style="stroke: #000000; stroke-width: 0.6"/>
      </g>
     </g>
    </g>
    <g id="ytick_36">
     <g id="line2d_55">
      <g>
       <use xlink:href="#m26e820f8c4" x="72" y="58.058141" style="stroke: #000000; stroke-width: 0.6"/>
      </g>
     </g>
    </g>
    <g id="ytick_37">
     <g id="line2d_56">
      <g>
       <use xlink:href="#m26e820f8c4" x="72" y="53.574434" style="stroke: #000000; stroke-width: 0.6"/>
      </g>
     </g>
    </g>
    <g id="ytick_38">
     <g id="line2d_57">
      <g>
       <use xlink:href="#m26e820f8c4" x="72" y="49.69047" style="stroke: #000000; stroke-width: 0.6"/>
      </g>
     </g>
    </g>
    <g id="ytick_39">
     <g id="line2d_58">
      <g>
       <use xlink:href="#m26e820f8c4" x="72" y="46.264571" style="stroke: #000000; stroke-width: 0.6"/>
      </g>
     </g>
    </g>
   </g>
   <g id="patch_101">
    <path d="M 72 320.4 
L 72 43.2 
" style="fill: none; stroke: #000000; stroke-width: 0.8; stroke-linejoin: miter; stroke-linecap: square"/>
   </g>
   <g id="patch_102">
    <path d="M 518.4 320.4 
L 518.4 43.2 
" style="fill: none; stroke: #000000; stroke-width: 0.8; stroke-linejoin: miter; stroke-linecap: square"/>
   </g>
   <g id="patch_103">
    <path d="M 72 320.4 
L 518.4 320.4 
" style="fill: none; stroke: #000000; stroke-width: 0.8; stroke-linejoin: miter; stroke-linecap: square"/>
   </g>
   <g id="patch_104">
    <path d="M 72 43.2 
L 518.4 43.2 
" style="fill: none; stroke: #000000; stroke-width: 0.8; stroke-linejoin: miter; stroke-linecap: square"/>
   </g>
  </g>
 </g>
 <defs>
  <clipPath id="pfe2fb6cf07">
   <rect x="72" y="43.2" width="446.4" height="277.2"/>
  </clipPath>
 </defs>
</svg>
